<svg class="icon" viewBox="0 0 1024 1024" xmlns="http://www.w3.org/2000/svg" width="200" height="200"><defs><style/></defs><path d="M919.561 245.728c-.9-28.287-24.311-55.01-52.01-59.841 0 0-107.386-16.978-167.643-38.42-75.232-26.771-149.681-85.618-149.681-85.618-23.221-16.581-58.838-15.553-80.375 2.372 0 0-52.704 53.179-151.044 84.22-90.852 36.511-163.465 40.25-163.465 40.25-27.402 3.57-50.991 28.867-51.522 57.147 0 0-3.69 145.387.966 272.985 1.759 228.27 271.994 453.938 408.551 453.938 134.417 0 366.71-157.225 403.25-450.619 9.03-174.188 2.973-276.414 2.973-276.414zM709.888 445.98l-232.34 235.172c-9.9 10.018-26.696 11.174-38.079 2.124l-121.33-96.415c-22.289-17.711-24.614-48.538-4.89-69.17 19.587-20.489 53.224-23.199 75.962-5.402l56.323 44.083 193.564-182.359c20.162-18.995 52.216-18.458 71.897.326-.281-.294-.359-.694-.65-.985l1.64 1.644c-.29-.29-.696-.378-.99-.66 18.927 19.892 18.664 51.63-1.107 71.642z"/></svg>