<svg class="icon" viewBox="0 0 1024 1024" xmlns="http://www.w3.org/2000/svg" width="200" height="200"><defs><style/></defs><path d="M903.232 562.176l119.232 94.912-127.168 209.728-143.168-50.176a407.296 407.296 0 0 1-88.96 50.176L633.92 1024H394.688l-33.664-157.184a387.328 387.328 0 0 1-88.96-50.176l-144 50.176L.192 657.088l120.768-94.912A395.136 395.136 0 0 1 117.312 512c0-16.896 1.6-33.792 3.712-50.176L.192 359.168l116.032-204.544 155.84 52.736a407.296 407.296 0 0 1 88.96-50.176L396.352 0H633.92l29.248 157.184c32.128 12.8 61.568 29.696 88.96 50.176l158.08-52.736 113.664 204.544-120.64 102.656c2.048 16.384 3.648 32.768 3.648 50.176 0 11.584-1.28 28.352-3.648 50.176zM512 320a192 192 0 1 0 0 384 192 192 0 1 0 0-384z"/></svg>